<svg xmlns="http://www.w3.org/2000/svg" fill="none" viewBox="0 0 260 260" width="260" height="260"><path fill="#ff4822" d="M130 255a125 125 0 1 0 0-250 125 125 0 0 0 0 250"></path><path fill="#fff" d="M172.7 102v29.1q0 6.6 2.4 9.6t7.1 3a10 10 0 0 0 7.9-3.4q3-3.5 3-10.2v-28h20.2v61.8a29 29 0 0 1-8.4 19.8q-8.6 8-24.6 8-8.5 0-15.7-1.8-7.3-2-12.4-5.7l.3-.6 10.5-11.2q2.3 1.3 5 2.2 5.3 1.7 10.3 1.7 7.7 0 11.3-3.6 3.3-3 3.6-9V156l-.1-.1v-1.3a23 23 0 0 1-16.2 6.2q-11.1 0-17.8-6.6-6.6-6.6-6.6-19.8v-32.3zM84.6 68q2 0 3.9.3v14.9a18 18 0 0 0-8.4 1.3q-1 .5-2 1.4a10 10 0 0 0-2.8 6.5v9.7h13v16.2h-13v41.5H55.1v-41.5h-8.5v-16.2h8.6v-9.7q.7-11.2 8.4-17.8 7.5-6.5 21-6.5m35.8 48.7v-.1l10.7-14.5h21.4l-21.3 28 22 29.6h-23l-9.8-14.2-9.7 14.2h-23l22-29.5L88.3 102h21.3z"></path></svg>
